<svg width="163" height="22" viewBox="0 0 163 22" fill="none" xmlns="http://www.w3.org/2000/svg">
<path d="M35.5543 20.688H32.3065C32.2318 20.688 32.1945 20.6426 32.1945 20.5518L32.2505 1.38285C32.2505 1.31019 32.2878 1.27386 32.3625 1.27386H35.8623C35.937 1.27386 36.0023 1.31019 36.0583 1.38285L38.6762 5.06133L41.2801 1.38285C41.3361 1.31019 41.4061 1.27386 41.4901 1.27386H45.0039C45.0879 1.27386 45.1299 1.31019 45.1299 1.38285L45.1859 20.5518C45.1859 20.6426 45.1486 20.688 45.0739 20.688H41.8261C41.7514 20.688 41.7141 20.6426 41.7141 20.5518L41.6861 6.31473L38.6762 10.5654L35.6943 6.31473L35.6663 20.5518C35.6663 20.6426 35.629 20.688 35.5543 20.688Z" fill="white"/>
<path d="M52.8995 20.9605C51.8823 20.9605 50.9443 20.7062 50.0857 20.1976C49.2364 19.6889 48.5504 19.0123 48.0278 18.1676C47.5145 17.3138 47.2578 16.3783 47.2578 15.3611L47.2858 6.51909C47.2858 5.48367 47.5425 4.5527 48.0558 3.72618C48.5597 2.89057 49.2411 2.223 50.0997 1.72345C50.9583 1.21482 51.8916 0.96051 52.8995 0.96051C53.9448 0.96051 54.8828 1.21028 55.7134 1.70983C56.5534 2.20937 57.2253 2.88149 57.7293 3.72618C58.2426 4.56178 58.4993 5.49275 58.4993 6.51909L58.5273 15.3611C58.5273 16.3783 58.2753 17.3093 57.7713 18.154C57.258 19.0077 56.5767 19.6889 55.7274 20.1976C54.8781 20.7062 53.9355 20.9605 52.8995 20.9605ZM52.8995 17.5954C53.4782 17.5954 53.9822 17.3683 54.4115 16.9142C54.8408 16.451 55.0554 15.9333 55.0554 15.3611L55.0275 6.51909C55.0275 5.90147 54.8268 5.37922 54.4255 4.95234C54.0242 4.52545 53.5155 4.31201 52.8995 4.31201C52.3116 4.31201 51.8076 4.52091 51.3876 4.93871C50.9676 5.35651 50.7576 5.88331 50.7576 6.51909V15.3611C50.7576 15.9696 50.9676 16.4964 51.3876 16.9414C51.8076 17.3774 52.3116 17.5954 52.8995 17.5954Z" fill="white"/>
<path d="M67.3889 20.688H63.917C63.833 20.688 63.7864 20.6426 63.777 20.5518L59.8152 1.38285C59.7966 1.31019 59.8339 1.27386 59.9272 1.27386H63.1751C63.2497 1.27386 63.2964 1.31019 63.3151 1.38285L65.667 14.1621L67.9629 1.38285C67.9815 1.31019 68.0282 1.27386 68.1028 1.27386H71.3087C71.4114 1.27386 71.4487 1.31019 71.4207 1.38285L67.5289 20.5518C67.5195 20.6426 67.4729 20.688 67.3889 20.688Z" fill="white"/>
<path d="M76.4885 20.688H73.2406C73.1473 20.688 73.1006 20.6426 73.1006 20.5518L73.1286 1.38285C73.1286 1.31019 73.1659 1.27386 73.2406 1.27386H76.4605C76.5351 1.27386 76.5725 1.31019 76.5725 1.38285L76.6005 20.5518C76.6005 20.6426 76.5631 20.688 76.4885 20.688Z" fill="white"/>
<path d="M88.4999 20.688H79.2323C79.1577 20.688 79.1203 20.6426 79.1203 20.5518L79.1483 1.38285C79.1483 1.31019 79.1857 1.27386 79.2603 1.27386H88.4719C88.5466 1.27386 88.5839 1.31927 88.5839 1.4101V4.52999C88.5839 4.60265 88.5466 4.63898 88.4719 4.63898H82.5922V8.99866H88.4719C88.5466 8.99866 88.5839 9.03499 88.5839 9.10765L88.6119 12.2684C88.6119 12.3411 88.5746 12.3774 88.4999 12.3774H82.5922V17.2548H88.4999C88.5746 17.2548 88.6119 17.3002 88.6119 17.391V20.579C88.6119 20.6517 88.5746 20.688 88.4999 20.688Z" fill="white"/>
<path d="M97.8515 20.688H94.3796C94.2956 20.688 94.249 20.6426 94.2396 20.5518L90.2778 1.38285C90.2592 1.31019 90.2965 1.27386 90.3898 1.27386H93.6377C93.7123 1.27386 93.759 1.31019 93.7777 1.38285L96.1296 14.1621L98.4254 1.38285C98.4441 1.31019 98.4908 1.27386 98.5654 1.27386H101.771C101.874 1.27386 101.911 1.31019 101.883 1.38285L97.9915 20.5518C97.9821 20.6426 97.9355 20.688 97.8515 20.688Z" fill="white"/>
<path d="M107.133 20.9605C106.116 20.9605 105.178 20.7062 104.319 20.1976C103.47 19.6889 102.784 19.0123 102.261 18.1676C101.748 17.3138 101.491 16.3783 101.491 15.3611L101.519 6.51909C101.519 5.48367 101.776 4.5527 102.289 3.72618C102.793 2.89057 103.475 2.223 104.333 1.72345C105.192 1.21482 106.125 0.96051 107.133 0.96051C108.178 0.96051 109.116 1.21028 109.947 1.70983C110.787 2.20937 111.459 2.88149 111.963 3.72618C112.476 4.56178 112.733 5.49275 112.733 6.51909L112.761 15.3611C112.761 16.3783 112.509 17.3093 112.005 18.154C111.492 19.0077 110.81 19.6889 109.961 20.1976C109.112 20.7062 108.169 20.9605 107.133 20.9605ZM107.133 17.5954C107.712 17.5954 108.216 17.3683 108.645 16.9142C109.074 16.451 109.289 15.9333 109.289 15.3611L109.261 6.51909C109.261 5.90147 109.06 5.37922 108.659 4.95234C108.258 4.52545 107.749 4.31201 107.133 4.31201C106.545 4.31201 106.041 4.52091 105.621 4.93871C105.201 5.35651 104.991 5.88331 104.991 6.51909V15.3611C104.991 15.9696 105.201 16.4964 105.621 16.9414C106.041 17.3774 106.545 17.5954 107.133 17.5954Z" fill="white"/>
<path d="M118.291 20.688H115.043C114.968 20.688 114.931 20.6426 114.931 20.5518L114.987 1.38285C114.987 1.31019 115.024 1.27386 115.099 1.27386H120.894C121.93 1.27386 122.882 1.51909 123.75 2.00956C124.618 2.50002 125.309 3.15851 125.822 3.98503C126.345 4.81155 126.606 5.74707 126.606 6.79157C126.606 7.47277 126.499 8.09039 126.284 8.64443C126.07 9.19848 125.818 9.66623 125.528 10.0477C125.248 10.4292 124.992 10.7107 124.758 10.8924C125.794 12.0096 126.312 13.322 126.312 14.8297L126.34 20.5518C126.34 20.6426 126.293 20.688 126.2 20.688H122.952C122.878 20.688 122.84 20.6608 122.84 20.6063V14.8297C122.84 14.1576 122.598 13.5763 122.112 13.0859C121.627 12.5954 121.03 12.3502 120.32 12.3502H118.431L118.403 20.5518C118.403 20.6426 118.365 20.688 118.291 20.688ZM120.894 4.61174H118.431V8.99866H120.894C121.482 8.99866 122.005 8.78521 122.462 8.35833C122.929 7.93145 123.162 7.40919 123.162 6.79157C123.162 6.2012 122.938 5.69257 122.49 5.26569C122.042 4.82972 121.51 4.61174 120.894 4.61174Z" fill="white"/>
<path d="M134.88 20.688H131.646C131.562 20.688 131.52 20.6426 131.52 20.5518V4.63898H127.796C127.703 4.63898 127.656 4.59357 127.656 4.50274L127.684 1.38285C127.684 1.31019 127.721 1.27386 127.796 1.27386H138.688C138.79 1.27386 138.842 1.31019 138.842 1.38285V4.50274C138.842 4.59357 138.804 4.63898 138.73 4.63898H134.964L134.992 20.5518C134.992 20.6426 134.954 20.688 134.88 20.688Z" fill="white"/>
<path d="M149.621 20.688H140.354C140.279 20.688 140.242 20.6426 140.242 20.5518L140.27 1.38285C140.27 1.31019 140.307 1.27386 140.382 1.27386H149.593C149.668 1.27386 149.705 1.31927 149.705 1.4101V4.52999C149.705 4.60265 149.668 4.63898 149.593 4.63898H143.713V8.99866H149.593C149.668 8.99866 149.705 9.03499 149.705 9.10765L149.733 12.2684C149.733 12.3411 149.696 12.3774 149.621 12.3774H143.713V17.2548H149.621C149.696 17.2548 149.733 17.3002 149.733 17.391V20.579C149.733 20.6517 149.696 20.688 149.621 20.688Z" fill="white"/>
<path d="M154.619 20.688H151.399C151.334 20.688 151.306 20.6426 151.315 20.5518L154.591 10.5927L151.371 1.38285C151.352 1.31019 151.38 1.27386 151.455 1.27386H154.675C154.768 1.27386 154.824 1.31019 154.843 1.38285L156.761 8.01773L158.707 1.38285C158.725 1.31019 158.786 1.27386 158.889 1.27386H162.067C162.141 1.27386 162.169 1.31019 162.151 1.38285L158.945 10.5654L162.179 20.5518C162.216 20.6426 162.188 20.688 162.095 20.688H158.889C158.805 20.688 158.744 20.6426 158.707 20.5518L156.761 13.3447L154.787 20.5518C154.778 20.6426 154.722 20.688 154.619 20.688Z" fill="white"/>
<path d="M21.8677 0L1.44252e-05 -9.55865e-07L1.41673e-05 5.90221L6.88595 5.90221L1.38663e-05 12.7881L1.34694e-05 21.8677L21.8677 0Z" fill="white"/>
<path d="M27.1945 0L5.38429 21.8102L27.1945 21.8102L27.1945 15.908L20.3086 15.908L27.1945 9.02204L27.1945 0Z" fill="#FF0000"/>
</svg>
